<?xml version="1.0" standalone="no"?>
<!DOCTYPE svg PUBLIC "-//W3C//DTD SVG 20010904//EN"
 "http://www.w3.org/TR/2001/REC-SVG-20010904/DTD/svg10.dtd">
<svg version="1.0" xmlns="http://www.w3.org/2000/svg"
 width="1920.000000pt" height="1080.000000pt" viewBox="0 0 1920.000000 1080.000000"
 preserveAspectRatio="xMidYMid meet">
<metadata>
Created by potrace 1.16, written by Peter Selinger 2001-2019
</metadata>
<g transform="translate(0.000000,1080.000000) scale(0.100000,-0.100000)"
fill="#000000" stroke="none">
<path d="M8764 6783 c3 -42 6 -273 6 -515 l0 -438 36 0 c19 0 33 4 30 8 -3 4
-8 213 -11 463 l-6 454 89 -89 c49 -48 94 -91 100 -95 8 -5 376 -359 511 -491
25 -25 111 -108 191 -185 80 -77 259 -250 399 -385 140 -135 280 -270 311
-300 32 -30 143 -138 249 -239 105 -102 188 -188 184 -192 -14 -11 -174 -79
-258 -109 -44 -15 -129 -48 -190 -73 -139 -58 -297 -121 -400 -159 -44 -16
-105 -40 -135 -53 -30 -13 -131 -54 -225 -90 -93 -37 -204 -80 -245 -97 -41
-17 -103 -42 -137 -55 -185 -69 -332 -127 -374 -148 l-26 -12 -6 240 c-4 132
-7 386 -7 565 l0 325 -27 46 -28 46 -3 -55 c-2 -30 1 -212 7 -405 6 -192 11
-425 11 -516 0 -91 3 -194 6 -228 7 -59 8 -61 35 -61 16 0 52 11 81 25 29 13
85 36 123 50 140 52 356 137 481 191 45 19 86 34 93 34 6 0 51 18 100 40 49
22 94 40 100 40 6 0 71 24 143 54 215 88 287 116 393 156 55 21 145 56 200 79
55 24 129 53 165 66 156 55 210 80 210 98 0 9 -4 17 -8 17 -5 0 -60 50 -123
110 -340 329 -622 603 -774 751 -93 92 -211 207 -262 255 -50 49 -208 202
-350 340 -142 138 -318 309 -392 380 -73 71 -157 153 -187 182 -77 75 -89 71
-80 -25z"/>
<path d="M8590 5725 c0 -8 9 -15 20 -15 27 0 102 -70 133 -123 14 -23 34 -73
46 -112 12 -38 26 -80 32 -91 6 -12 82 -224 169 -470 112 -320 162 -450 174
-452 9 -2 16 -2 16 0 0 2 25 72 55 157 30 85 55 162 55 172 0 10 -54 172 -121
361 -138 390 -149 446 -107 508 13 19 34 39 46 45 12 5 22 15 22 22 0 10 -59
13 -270 13 -233 0 -270 -2 -270 -15z"/>
<path d="M9310 5725 c0 -9 9 -15 23 -15 12 0 36 -8 52 -18 69 -42 89 -90 351
-831 124 -352 152 -416 170 -398 3 3 30 83 60 179 l54 173 -121 343 c-125 354
-136 396 -125 456 8 43 51 96 77 96 10 0 19 7 19 15 0 13 -38 15 -280 15 -242
0 -280 -2 -280 -15z"/>
<path d="M10160 5725 c0 -8 8 -15 18 -15 40 0 74 -62 81 -149 l6 -64 35 63
c39 70 119 150 150 150 11 0 20 7 20 15 0 13 -24 15 -155 15 -131 0 -155 -2
-155 -15z"/>
</g>
</svg>
